<?xml version="1.0" encoding="UTF-8"?>
<svg width="88px" height="47px" viewBox="0 0 88 47" version="1.1" xmlns="http://www.w3.org/2000/svg" xmlns:xlink="http://www.w3.org/1999/xlink">
    <title>Логотип</title>
    <defs>
        <linearGradient x1="100%" y1="50.7011773%" x2="0%" y2="49.2988227%" id="linearGradient-1">
            <stop stop-color="#1EF7A0" offset="0%"></stop>
            <stop stop-color="#32C5FF" offset="51.8093542%"></stop>
            <stop stop-color="#0091FF" offset="100%"></stop>
        </linearGradient>
    </defs>
    <g id="Symbols" stroke="none" stroke-width="1" fill="none" fill-rule="evenodd">
        <g id="Navigation-Menu" transform="translate(-51.000000, -25.000000)">
            <g id="Logo" transform="translate(45.000000, 10.000000)">
                <g id="Логотип" transform="translate(6.000000, 15.000000)">
                    <polygon id="Rectangle" fill="url(#linearGradient-1)" points="0.4 37.24 4.47696893 37.24 4.47696893 43.2733003 72.3666538 43.2733003 72.3666538 37.24 76.4 37.24 76.4 46.24 0.4 46.24"></polygon>
                    <path d="M18.36,4.04 L18.36,0.24 L0,0.24 L0,4.04 L18.36,4.04 Z M3.84,28.24 L3.84,16.08 L18.3468021,16.08 L18.3468021,12.36 L0,12.36 L0,28.24 L3.84,28.24 Z M19.6070588,28.24 L27.3270588,5.96 L35.0470588,28.24 L39.2470588,28.24 L29.1670588,0.24 L25.4470588,0.24 L15.4070588,28.24 L19.6070588,28.24 Z M44.1341176,28.24 L44.1341176,16.2125451 L50.5141176,16.2125451 L56.3741176,28.24 L60.7341176,28.24 L54.6941176,16.2125451 C58.0141176,14.8125451 59.9341176,12.96 59.9341176,9.28 C59.9341176,4.28 56.4541176,0.24 50.7741176,0.24 L40.2941176,0.24 L40.2941176,4.04 L50.7741176,4.04 C54.1341176,4.04 56.0141176,5.48266975 56.0141176,8.24266975 C56.0141176,10.9626697 54.1341176,12.2010803 50.7741176,12.2010803 L40.2941176,12.2010803 L40.2941176,28.24 L44.1341176,28.24 Z M76.1411765,34.24 L76.1411765,28.44 C83.1011765,27.56 87.9811765,21.56 87.9811765,14.28 C87.9811765,6.36 82.2611765,0 74.3811765,0 C66.4611765,0 60.7811765,6.36 60.7811765,14.24 C60.7811765,21.44 65.5011765,27.4 72.3011765,28.4 L72.3011765,34.24 L76.1411765,34.24 Z M74.3811765,24.72 C68.5811765,24.72 64.7411765,20.04 64.7411765,14.24 C64.7411765,8.44 68.5811765,3.8 74.3811765,3.8 C80.1411765,3.8 84.0211765,8.48 84.0211765,14.28 C84.0211765,20.04 80.1411765,24.72 74.3811765,24.72 Z" id="FARQ" fill="#FFFFFF" fill-rule="nonzero"></path>
                </g>
            </g>
        </g>
    </g>
</svg>